<svg width="26" height="26" viewBox="0 0 26 26" fill="none" xmlns="http://www.w3.org/2000/svg">
<path d="M20.5833 3.25H5.41667C4.225 3.25 3.25 4.225 3.25 5.41667V20.5833C3.25 21.775 4.225 22.75 5.41667 22.75H20.5833C21.775 22.75 22.75 21.775 22.75 20.5833V5.41667C22.75 4.225 21.775 3.25 20.5833 3.25ZM20.5833 20.5833H5.41667V5.41667H20.5833V20.5833ZM13 6.5C11.2017 6.5 9.75 7.95167 9.75 9.75C9.75 11.5483 11.2017 13 13 13C14.7983 13 16.25 11.5483 16.25 9.75C16.25 7.95167 14.7983 6.5 13 6.5ZM11.9167 10.2917H10.8333V9.20833H11.9167V10.2917ZM13.5417 10.2917H12.4583V9.20833H13.5417V10.2917ZM15.1667 10.2917H14.0833V9.20833H15.1667V10.2917Z" fill="#626262"/>
</svg>
